# xmcd
#
# Track frame offsets:
# 150
# 9905
# 21565
# 41536
# 65709
# 94692
# 113144
# 137858
# 163436
# 179741
# 235435
# 259322
# 281281
#
# Disc length: 4153 seconds
#
# Revision: 0
# Processed by: cddbd v1.4PL0 Copyright (c) Steve Scherf et al.
# Submitted via: Audion 3.0.2 (http://www.panic.com/audion/)
#
DISCID=c110370d
DTITLE=Mix - Techno/rap -420
DYEAR=1900
DGENRE=
TTITLE0=Blaze it
TTITLE1=Weed Song
TTITLE2=Why Do i stay high
TTITLE3=Unafraid
TTITLE4=Acid Breeze
TTITLE5=Ecstacy
TTITLE6=Better Off Alone
TTITLE7=Tripping The Trance
TTITLE8=Antisasia
TTITLE9=ATB--Mix
TTITLE10=Bad Weed Blues
TTITLE11=I Wanna Fuck You in the A..
TTITLE12=BEST RAVE SONG EVER
EXTD=
EXTT0=
EXTT1=
EXTT2=
EXTT3=
EXTT4=
EXTT5=
EXTT6=
EXTT7=
EXTT8=
EXTT9=
EXTT10=
EXTT11=
EXTT12=
PLAYORDER=
